<?xml version="1.0" encoding="UTF-8"?>
<svg id="svg2" xmlns="http://www.w3.org/2000/svg" viewBox="0 0 839.83 247.13">
  <defs>
    <style>
      .cls-1 {
        stroke-miterlimit: 4;
        stroke-width: 2.82px;
      }

      .cls-1, .cls-2, .cls-3, .cls-4, .cls-5, .cls-6, .cls-7 {
        fill: none;
      }

      .cls-1, .cls-2, .cls-3, .cls-4, .cls-6, .cls-7 {
        stroke: #c34353;
      }

      .cls-8 {
        fill: #c34353;
      }

      .cls-2 {
        stroke-miterlimit: 4;
        stroke-width: 2.82px;
      }

      .cls-3 {
        stroke-miterlimit: 4;
        stroke-width: 2.81px;
      }

      .cls-4 {
        stroke-miterlimit: 4;
        stroke-width: 3px;
      }

      .cls-4, .cls-6 {
        stroke-linecap: round;
      }

      .cls-5 {
        isolation: isolate;
      }

      .cls-6 {
        stroke-width: 3px;
      }

      .cls-7 {
        stroke-width: 2.82px;
      }
    </style>
  </defs>
  <g id="g6265">
    <path id="ellipse6129" class="cls-2" d="m44.56,150.2C10.04,120.79-6.86,86.68,5.37,64.52c12.54-22.71,51.99-26.22,96.61-11.46m21.29,8.28c6.1,2.73,12.24,5.79,18.35,9.16,7.39,4.22,14.41,8.48,20.53,12.68m18.25,14c34.31,29.36,51.08,63.33,38.88,85.43-12.63,22.87-52.56,26.26-97.57,11.15m-19.89-7.77c-6.25-2.78-12.53-5.9-18.79-9.36-7.1-3.92-13.85-8.09-20.2-12.46"/>
    <path id="ellipse6131" class="cls-1" d="m62.23,83.74c6.26-4.45,12.91-8.72,19.92-12.74,6.87-3.84,13.69-7.37,19.9-10.26m21.3-8.49c43.6-14.77,82.2-11.7,94.93,10.48s-4.05,57.02-38.75,87.22m-18,14.08c-5.99,4.22-12.34,8.27-19.01,12.1s-12.87,7.02-19.29,9.98m-21.8,8.73c-43.65,14.82-82.29,11.76-95.04-10.44-12.68-22.09,3.92-56.75,38.35-86.87"/>
    <circle id="circle6133" class="cls-7" cx="112.8" cy="57.48" r="9.96"/>
    <g id="g6139">
      <path id="path6135" class="cls-6" d="m71.21,146.91l5.71-3.11"/>
      <path id="path6137" class="cls-6" d="m88.8,136.96l5.71-3.11"/>
    </g>
    <g id="g6145">
      <path id="path6141" class="cls-4" d="m112.23,169.83l.16-6.5"/>
      <path id="path6143" class="cls-4" d="m112.4,149.62l.16-6.5"/>
    </g>
    <g id="g6151">
      <path id="path6147" class="cls-4" d="m112.23,104.45l.16-6.5"/>
      <path id="path6149" class="cls-4" d="m112.4,84.24l.16-6.5"/>
    </g>
    <g id="g6157">
      <path id="path6153" class="cls-6" d="m129.78,113.23l5.71-3.11"/>
      <path id="path6155" class="cls-6" d="m147.37,103.27l5.71-3.11"/>
    </g>
    <g id="g6163">
      <path id="path6159" class="cls-4" d="m71.21,99.71l5.55,3.38"/>
      <path id="path6161" class="cls-4" d="m88.62,109.96l5.55,3.38"/>
    </g>
    <g id="g6169">
      <path id="path6165" class="cls-4" d="m130.11,133.39l5.55,3.38"/>
      <path id="path6167" class="cls-4" d="m147.53,143.65l5.55,3.38"/>
    </g>
    <path id="ellipse6171" class="cls-3" d="m52.94,144.91c-.67-6.56-1.08-13.31-1.21-20.19-.15-7.64.06-15.12.58-22.38m2.83-22.87C63.18,34.2,84.43,1.9,109.99,1.41s48.61,31.79,58.18,77.66m3.46,22.23c.72,6.85,1.17,13.89,1.31,21.09.15,7.84-.07,15.51-.63,22.96m-2.88,22.83c-8.12,44.99-29.3,77.03-54.75,77.52-26.09.5-48.97-32.31-58.4-78.76"/>
    <circle id="circle6173" class="cls-7" cx="54.13" cy="91.04" r="9.96"/>
    <circle id="circle6175" class="cls-7" cx="53.66" cy="156.74" r="9.96"/>
    <circle id="circle6177" class="cls-7" cx="112.09" cy="189.59" r="9.96"/>
    <circle id="circle6179" class="cls-7" cx="170.76" cy="156.98" r="9.96"/>
    <circle id="circle6181" class="cls-7" cx="170.99" cy="90.33" r="9.96"/>
    <circle id="circle6183" class="cls-7" cx="112.33" cy="123.42" r="9.96"/>
  </g>
  <g id="text316" class="cls-5">
    <g class="cls-5">
      <path class="cls-8" d="m342.8,125.69l13.26,3.23c-2.78,10.51-7.78,18.53-15.01,24.04-7.22,5.52-16.05,8.28-26.49,8.28s-19.59-2.12-26.35-6.37c-6.77-4.24-11.92-10.39-15.45-18.44-3.53-8.05-5.3-16.69-5.3-25.92,0-10.07,1.99-18.85,5.98-26.35,3.99-7.5,9.66-13.19,17.02-17.08,7.36-3.89,15.46-5.84,24.3-5.84,10.03,0,18.46,2.46,25.29,7.39,6.84,4.93,11.6,11.85,14.29,20.78l-13.06,2.97c-2.32-7.04-5.7-12.16-10.12-15.37-4.42-3.21-9.98-4.82-16.68-4.82-7.7,0-14.14,1.78-19.31,5.34-5.17,3.56-8.81,8.34-10.9,14.35-2.1,6-3.14,12.19-3.14,18.57,0,8.22,1.24,15.4,3.73,21.54,2.48,6.13,6.35,10.72,11.59,13.75,5.24,3.03,10.92,4.55,17.02,4.55,7.43,0,13.72-2.07,18.87-6.2,5.15-4.13,8.64-10.27,10.46-18.4Z"/>
      <path class="cls-8" d="m375.97,159.6V62.89h44.44c8.93,0,15.72.87,20.37,2.61,4.65,1.74,8.36,4.81,11.14,9.2,2.78,4.4,4.17,9.26,4.17,14.58,0,6.86-2.3,12.64-6.9,17.35-4.6,4.71-11.71,7.7-21.33,8.97,3.51,1.63,6.17,3.23,8,4.82,3.87,3.43,7.54,7.72,11.01,12.86l17.43,26.32h-16.68l-13.26-20.12c-3.87-5.8-7.06-10.25-9.57-13.33-2.51-3.08-4.75-5.23-6.73-6.46-1.98-1.23-4-2.09-6.05-2.57-1.5-.31-3.96-.46-7.38-.46h-15.38v42.94h-13.26Zm13.26-54.02h28.51c6.06,0,10.8-.6,14.22-1.81,3.42-1.21,6.02-3.14,7.79-5.8,1.78-2.66,2.67-5.55,2.67-8.67,0-4.57-1.72-8.33-5.16-11.28-3.44-2.95-8.88-4.42-16.31-4.42h-31.72v31.99Z"/>
      <path class="cls-8" d="m482.49,159.6V62.89h13.26v96.7h-13.26Z"/>
      <path class="cls-8" d="m517.98,128.53l12.51-1.06c.59,4.84,1.97,8.81,4.14,11.91,2.16,3.1,5.53,5.61,10.08,7.52,4.56,1.91,9.68,2.87,15.38,2.87,5.06,0,9.53-.73,13.4-2.18,3.87-1.45,6.76-3.44,8.65-5.97,1.89-2.53,2.84-5.29,2.84-8.28s-.91-5.68-2.74-7.95-4.83-4.17-9.02-5.71c-2.69-1.01-8.64-2.58-17.84-4.72-9.21-2.13-15.66-4.14-19.35-6.04-4.79-2.42-8.35-5.42-10.7-9-2.35-3.58-3.52-7.6-3.52-12.04,0-4.88,1.44-9.44,4.31-13.69,2.87-4.24,7.06-7.46,12.58-9.66,5.51-2.2,11.65-3.3,18.39-3.3,7.43,0,13.98,1.15,19.66,3.46s10.04,5.71,13.09,10.19c3.05,4.49,4.69,9.56,4.92,15.24l-12.72.92c-.68-6.11-3-10.73-6.94-13.85-3.94-3.12-9.77-4.68-17.47-4.68s-13.87,1.42-17.54,4.25c-3.67,2.84-5.5,6.26-5.5,10.26,0,3.47,1.3,6.33,3.9,8.58,2.55,2.24,9.22,4.54,20,6.89,10.78,2.35,18.17,4.41,22.18,6.17,5.83,2.59,10.14,5.88,12.92,9.86,2.78,3.98,4.17,8.56,4.17,13.75s-1.53,9.99-4.58,14.54c-3.05,4.55-7.44,8.09-13.16,10.62s-12.16,3.79-19.31,3.79c-9.07,0-16.67-1.28-22.8-3.83s-10.94-6.39-14.42-11.51c-3.49-5.12-5.32-10.92-5.5-17.38Z"/>
      <path class="cls-8" d="m665.05,150.95c-4.56,3.74-8.95,6.38-13.16,7.92-4.22,1.54-8.74,2.31-13.57,2.31-7.98,0-14.11-1.88-18.39-5.64-4.28-3.76-6.43-8.56-6.43-14.41,0-3.43.81-6.56,2.43-9.4,1.62-2.84,3.74-5.11,6.36-6.83,2.62-1.71,5.57-3.01,8.85-3.89,2.42-.62,6.06-1.21,10.94-1.78,9.94-1.14,17.25-2.51,21.95-4.09.04-1.63.07-2.66.07-3.1,0-4.84-1.16-8.25-3.49-10.22-3.14-2.68-7.82-4.02-14.01-4.02-5.79,0-10.06.98-12.82,2.94-2.76,1.96-4.8,5.42-6.12,10.39l-12.03-1.58c1.09-4.97,2.89-8.98,5.4-12.04,2.51-3.06,6.13-5.41,10.87-7.06s10.23-2.47,16.48-2.47,11.23.7,15.11,2.11c3.87,1.41,6.72,3.18,8.55,5.31,1.82,2.13,3.1,4.83,3.83,8.08.41,2.02.62,5.67.62,10.95v15.83c0,11.04.26,18.02.79,20.94.52,2.92,1.56,5.73,3.11,8.41h-12.85c-1.28-2.46-2.1-5.34-2.46-8.64Zm-1.03-26.52c-4.47,1.76-11.17,3.25-20.1,4.49-5.06.7-8.64,1.5-10.73,2.38-2.1.88-3.71,2.17-4.85,3.86-1.14,1.69-1.71,3.57-1.71,5.64,0,3.17,1.24,5.8,3.73,7.92,2.48,2.11,6.12,3.17,10.9,3.17s8.96-1,12.65-3c3.69-2,6.4-4.74,8.14-8.21,1.32-2.68,1.98-6.64,1.98-11.87v-4.35Z"/>
      <path class="cls-8" d="m698.63,159.6V62.89h12.31v96.7h-12.31Z"/>
      <path class="cls-8" d="m733.43,76.55v-13.65h12.31v13.65h-12.31Zm0,83.05v-70.05h12.31v70.05h-12.31Z"/>
      <path class="cls-8" d="m814.94,159.6v-8.84c-4.6,6.95-11.37,10.42-20.3,10.42-5.79,0-11.11-1.54-15.96-4.62-4.85-3.08-8.61-7.38-11.28-12.9-2.67-5.52-4-11.86-4-19.03s1.21-13.33,3.62-19.03c2.42-5.7,6.04-10.06,10.87-13.09,4.83-3.03,10.23-4.55,16.2-4.55,4.38,0,8.27.89,11.69,2.67,3.42,1.78,6.2,4.1,8.34,6.96v-34.7h12.24v96.7h-11.42Zm-38.9-34.96c0,8.97,1.96,15.68,5.88,20.12,3.92,4.44,8.55,6.66,13.88,6.66s9.95-2.12,13.71-6.37c3.76-4.24,5.64-10.72,5.64-19.43,0-9.59-1.91-16.62-5.74-21.11-3.83-4.49-8.55-6.73-14.15-6.73s-10.04,2.16-13.71,6.46c-3.67,4.31-5.5,11.1-5.5,20.38Z"/>
    </g>
  </g>
</svg>